<!-- icon666.com - MILLIONS vector ICONS FREE --><svg viewBox="0 0 48 48" xmlns="http://www.w3.org/2000/svg"><g id="Email_Inbox" data-name="Email Inbox"><path d="m24 18a7 7 0 1 0 -7-7 7 7 0 0 0 7 7zm-2.707-6.707a1 1 0 0 1 1.4141 0l.293.293v-3.586a1 1 0 0 1 2 0v3.5859l.293-.293a1 1 0 0 1 1.4139 1.4141l-2 2a1 1 0 0 1 -1.4141 0l-2-2a1 1 0 0 1 .0001-1.414z"></path><path d="m30.8245 29.2919-4.2922 3.5118a4.0045 4.0045 0 0 1 -5.0664-.0015l-4.29-3.51-15.1583 12.4016a.9989.9989 0 0 0 -.0439 1.51 2.9912 2.9912 0 0 0 2.0263.7962h40a2.9912 2.9912 0 0 0 2.0264-.7959.9989.9989 0 0 0 -.0439-1.51z"></path><path d="m32.403 28 14.597 11.942v-23.885z"></path><path d="m1 16.058v23.885l14.596-11.943z"></path><path d="m22.7344 31.2559a2.0041 2.0041 0 0 0 2.5313 0l20.7168-16.95a.9989.9989 0 0 0 .0439-1.51 2.9912 2.9912 0 0 0 -2.0264-.7959h-11.059a8.9964 8.9964 0 0 1 -17.882 0h-11.059a2.9912 2.9912 0 0 0 -2.0264.7959.9989.9989 0 0 0 .0439 1.51z"></path></g></svg>