<svg xmlns="http://www.w3.org/2000/svg" width="64" height="64" fill="none" viewBox="0 0 64 64"><path stroke="#343E4D" stroke-miterlimit="10" stroke-width="2" d="M46.2901 15.43L47.2901 18.43C47.5816 19.3797 48.1839 20.2038 49.0001 20.77L51.5301 22.47C52.3795 23.0401 53.0076 23.8842 53.3097 24.8615C53.6118 25.8388 53.5696 26.8901 53.1901 27.84L52.1901 30.27C51.7548 31.3443 51.7548 32.5458 52.1901 33.62L53.1901 35.99C53.5687 36.9208 53.6227 37.952 53.3433 38.9173C53.0639 39.8825 52.4674 40.7254 51.6501 41.31L49.4001 42.92C48.5754 43.5062 47.9756 44.3565 47.7001 45.33L46.8901 48.17C46.6081 49.1671 45.9877 50.0348 45.1355 50.6242C44.2833 51.2136 43.2525 51.4879 42.2201 51.4L39.7901 51.2C38.6401 51.1045 37.4984 51.4635 36.6101 52.2L34.2701 54.09C33.4723 54.7406 32.4745 55.0959 31.4451 55.0959C30.4157 55.0959 29.4179 54.7406 28.6201 54.09L26.6201 52.45C25.8184 51.7968 24.8142 51.4432 23.7801 51.45H20.2701C19.26 51.4526 18.279 51.1115 17.4885 50.4827C16.6979 49.8539 16.1448 48.9748 15.9201 47.99L15.2801 45.27C15.0299 44.1725 14.3722 43.211 13.4401 42.58L11.2901 41C10.4763 40.4465 9.86906 39.6388 9.56327 38.7033C9.25747 37.7678 9.27043 36.7574 9.6001 35.83L10.6001 33.09C10.9701 32.0933 10.9701 30.9968 10.6001 30L9.7001 27.6C9.34021 26.6468 9.31758 25.599 9.63597 24.6311C9.95436 23.6632 10.5946 22.8335 11.4501 22.28L13.8201 20.75C14.7364 20.1574 15.4049 19.2506 15.7001 18.2L16.4001 15.68C16.6806 14.6766 17.3027 13.8028 18.1591 13.2093C19.0154 12.6159 20.0521 12.3403 21.0901 12.43L23.3301 12.62C24.4826 12.7108 25.6256 12.3525 26.5201 11.62L28.6501 9.90003C29.4502 9.24613 30.4518 8.88892 31.4851 8.88892C32.5184 8.88892 33.52 9.24613 34.3201 9.90003L36.1801 11.46C37.0746 12.1997 38.2236 12.5588 39.3801 12.46L41.7301 12.29C42.7324 12.225 43.7275 12.4994 44.5548 13.0691C45.382 13.6387 45.9933 14.4704 46.2901 15.43V15.43Z"/><path stroke="#343E4D" stroke-linecap="round" stroke-linejoin="round" stroke-width="2" d="M25.8901 27.8501C27.9722 27.8501 29.6601 26.1622 29.6601 24.0801 29.6601 21.9979 27.9722 20.3101 25.8901 20.3101 23.808 20.3101 22.1201 21.9979 22.1201 24.0801 22.1201 26.1622 23.808 27.8501 25.8901 27.8501zM37.3901 43.6899C39.4722 43.6899 41.1601 42.002 41.1601 39.9199 41.1601 37.8378 39.4722 36.1499 37.3901 36.1499 35.308 36.1499 33.6201 37.8378 33.6201 39.9199 33.6201 42.002 35.308 43.6899 37.3901 43.6899zM41.16 22.1899L21.3 42.0599"/></svg>